<svg
	xmlns="http://www.w3.org/2000/svg" width="133.636" height="68.682" viewBox="0 0 133.636 68.682">
	<defs>
		<style>.a{fill:#ab0b1b;}.b{fill:#e60019;}.c{fill:#c1bfbf;}.d{fill:#040505;}.e{fill:#404040;}.f{fill:#c3c1bf;}.g{fill:#858585;}
		.rotate_tire{
                animation: tire 5s linear infinite reverse;
                transform-origin: 50% 50%;
                transform-box:fill-box;
			}
            @keyframes tire {
                0%{
		    		transform: rotate(0deg);
                }
                100%{
                   transform: rotate(360deg);
                }
            }
        </style>
	</defs>
	<g transform="translate(-542.952 -143.522)">
		<rect class="a" width="130.369" height="6.043" transform="translate(542.952 196.578) rotate(-0.074)"/>
		<path class="b" d="M578.089,168.045c-12.028.016-19.922,2.4-25.075,5.777a7.529,7.529,0,0,1-8.686,12.092,23.382,23.382,0,0,0-.029,10.662l132.289-.17-.029-22.743-4.338-5.739Z"/>
		<path class="c" d="M555.281,179.2a7.51,7.51,0,0,0-2.267-5.373,19.689,19.689,0,0,0-8.686,12.092,7.525,7.525,0,0,0,10.953-6.719Z"/>
		<path class="d" d="M574.314,168.133l16.875-21.367,74.358-.095,6.674,21.253Z"/>
		<path class="e" d="M666.9,145.094a1.575,1.575,0,0,1-1.573,1.577l-73.545.1a1.575,1.575,0,0,1-1.576-1.573h0a1.573,1.573,0,0,1,1.572-1.577l73.545-.094a1.573,1.573,0,0,1,1.577,1.572Z"/>
		<path class="c" d="M589.564,168.03a3.886,3.886,0,1,1-3.892-3.88A3.885,3.885,0,0,1,589.564,168.03Z"/>
		<rect class="a" width="0.834" height="13.611" transform="translate(577.432 168.128)"/>
		<rect class="a" width="0.834" height="28.584" transform="translate(632.991 168.057) rotate(-0.068)"/>
	<g class="rotate_tire">
		<path class="d" d="M587.686,195.668a16.514,16.514,0,1,1-16.536-16.493A16.515,16.515,0,0,1,587.686,195.668Z"/>
		<path class="f" d="M582.32,195.675a11.148,11.148,0,1,1-11.163-11.133A11.147,11.147,0,0,1,582.32,195.675Z"/>
		<path class="g" d="M574.544,195.685a3.372,3.372,0,1,1-3.377-3.368A3.372,3.372,0,0,1,574.544,195.685Z"/>
		<path class="g" d="M573.019,188.565a1.857,1.857,0,1,1-1.859-1.855A1.857,1.857,0,0,1,573.019,188.565Z"/>
		<path class="g" d="M573.037,202.808a1.857,1.857,0,1,1-1.859-1.855A1.855,1.855,0,0,1,573.037,202.808Z"/>
		<path class="g" d="M567.441,189.345a1.858,1.858,0,1,1-2.628,0A1.854,1.854,0,0,1,567.441,189.345Z"/>
		<path class="g" d="M577.525,199.4a1.857,1.857,0,1,1-2.626,0A1.854,1.854,0,0,1,577.525,199.4Z"/>
		<path class="g" d="M564.049,193.841a1.858,1.858,0,1,1-1.857,1.861A1.858,1.858,0,0,1,564.049,193.841Z"/>
		<path class="g" d="M578.291,193.823a1.858,1.858,0,1,1-1.855,1.859A1.858,1.858,0,0,1,578.291,193.823Z"/>
		<path class="g" d="M564.829,199.42a1.857,1.857,0,1,1,0,2.628A1.855,1.855,0,0,1,564.829,199.42Z"/>
		<path class="g" d="M574.887,189.336a1.857,1.857,0,1,1,0,2.627A1.856,1.856,0,0,1,574.887,189.336Z"/>
	</g>
	<g class="rotate_tire">
		<path class="d" d="M676.587,195.554a16.514,16.514,0,1,1-16.535-16.494A16.512,16.512,0,0,1,676.587,195.554Z"/>
		<path class="f" d="M671.221,195.56a11.148,11.148,0,1,1-11.162-11.132A11.147,11.147,0,0,1,671.221,195.56Z"/>
		<path class="g" d="M663.444,195.571a3.371,3.371,0,1,1-3.375-3.368A3.371,3.371,0,0,1,663.444,195.571Z"/>
		<path class="g" d="M661.921,188.451a1.857,1.857,0,1,1-1.859-1.855A1.855,1.855,0,0,1,661.921,188.451Z"/>
		<path class="g" d="M661.94,202.7a1.858,1.858,0,1,1-1.86-1.857A1.856,1.856,0,0,1,661.94,202.7Z"/>
		<path class="g" d="M656.343,189.231a1.858,1.858,0,1,1-2.628,0A1.858,1.858,0,0,1,656.343,189.231Z"/>
		<path class="g" d="M666.427,199.289a1.858,1.858,0,1,1-2.625,0A1.855,1.855,0,0,1,666.427,199.289Z"/>
		<path class="g" d="M652.949,193.727a1.858,1.858,0,1,1-1.855,1.86A1.856,1.856,0,0,1,652.949,193.727Z"/>
		<path class="g" d="M667.193,193.708a1.859,1.859,0,1,1-1.855,1.861A1.859,1.859,0,0,1,667.193,193.708Z"/>
		<path class="g" d="M653.731,199.3a1.858,1.858,0,1,1,0,2.629A1.856,1.856,0,0,1,653.731,199.3Z"/>
		<path class="g" d="M663.789,189.221a1.857,1.857,0,1,1,0,2.627A1.855,1.855,0,0,1,663.789,189.221Z"/>
	</g>
		<rect class="d" width="11.925" height="2.306" transform="matrix(1, -0.001, 0.001, 1, 616.629, 173.74)"/>
	</g>
</svg>