<svg version="1.1" id="Layer_1" xmlns="http://www.w3.org/2000/svg" xmlns:xlink="http://www.w3.org/1999/xlink" x="0px" y="0px"
	 viewBox="0 0 135.2 111.8" width="135px" height="111px" style="enable-background:new 0 0 135.2 111.8;" xml:space="preserve">
<style type="text/css">
	.st0{fill:#5EABB8;}
	.st1{fill:#FFE69B;}
	.st2{fill:#81D0E2;}
	.st3{fill:#F77E0B;}
	.st4{fill:#36ABE5;}
	.st5{fill:#FFFFFF;}
	.st6{fill:#1A1818;}
	.st7{fill:#818386;}
	.st8{fill:none;stroke:#FFFFFF;stroke-width:1.812;stroke-miterlimit:10;}
	.st9{fill:#E50019;}
	.st10{fill:#F2898E;}
	.st11{fill:#F6ADB0;}
	.st12{fill:#F4A438;}
	.st13{fill:#CD7B1C;}
	.st14{fill:#F5A438;}
	.rotate_tire{
        transform-origin: 50% 50%;
        transform-box:fill-box;
        animation: tire 5s linear infinite reverse;			
	}
    @keyframes tire {
        0%{
    		transform: rotate(0deg);
        }
        100%{
           transform: rotate(360deg);
      }
    }
</style>
<rect id="Rectangle_50" y="86.4" class="st0" width="135.2" height="17.4"/>
<path id="Path_709" class="st1" d="M25.2,35.6l-4.9,27.7l-16.8,10C1.3,74.6,0,76.9,0,79.4V101h135.1V36.6c0-3.9-3.2-7.1-7.1-7.1
	H32.2C28.7,29.5,25.7,32.1,25.2,35.6z"/>
<rect id="Rectangle_51" y="83.6" class="st2" width="135.2" height="17.4"/>
<path id="Rectangle_52" class="st3" d="M0,80.9L0,80.9c2.4,0,4.3,1.9,4.3,4.3v8l0,0H0l0,0V80.9L0,80.9z"/>
<path id="Path_710" class="st4" d="M29.4,38.8l-4.6,24.1h12.5V36.5h-5.2C30.8,36.5,29.6,37.5,29.4,38.8z"/>
<rect id="Rectangle_53" x="66" y="36.5" class="st4" width="58.8" height="29.9"/>
<rect id="Rectangle_54" x="66" y="63" class="st5" width="58.8" height="15"/>
<g id="Group_221">
	<path id="Path_711" class="st0" d="M23.9,87.1c-7.7,0-13.9,6.3-13.9,14c0,0.9,0.1,1.9,0.3,2.8h27.2C39,96.4,34.2,89,26.6,87.5
		C25.7,87.2,24.8,87.1,23.9,87.1z"/>
	<path id="Path_712" class="st0" d="M118.9,87.1c-7.7,0-13.9,6.3-13.9,14c0,0.9,0.1,1.9,0.3,2.8h27.2c1.5-7.5-3.3-14.9-10.9-16.4
		C120.7,87.2,119.8,87.1,118.9,87.1L118.9,87.1z"/>
</g>
<g id="Group_222" class="rotate_tire">
	<circle id="Ellipse_137" class="st6" cx="23.9" cy="101.1" r="10.8"/>
	<path id="Path_713" class="st7" d="M29.8,101.1c0,3.3-2.6,5.9-5.9,5.9s-5.9-2.6-5.9-5.9s2.6-5.9,5.9-5.9l0,0
		C27.1,95.1,29.8,97.8,29.8,101.1z"/>
	<path id="Path_714" class="st8" d="M26.2,101.1c0,1.3-1,2.3-2.3,2.3s-2.3-1-2.3-2.3s1-2.3,2.3-2.3C25.1,98.8,26.2,99.8,26.2,101.1z
		"/>
</g>
<g id="Group_223" class="rotate_tire">
	<circle id="Ellipse_138" class="st6" cx="118.9" cy="101.1" r="10.8"/>
	<path id="Path_715" class="st7" d="M124.8,101.1c0,3.3-2.6,5.9-5.9,5.9s-5.9-2.6-5.9-5.9s2.6-5.9,5.9-5.9l0,0
		C122.1,95.1,124.8,97.8,124.8,101.1z"/>
	<path id="Path_716" class="st8" d="M121.2,101.1c0,1.3-1,2.3-2.3,2.3s-2.3-1-2.3-2.3s1-2.3,2.3-2.3l0,0
		C120.1,98.8,121.2,99.8,121.2,101.1z"/>
</g>
<path id="Rectangle_55" class="st4" d="M43.6,36.5h14.9c1.5,0,2.8,1.2,2.8,2.8v20.9c0,1.5-1.2,2.8-2.8,2.8H43.6
	c-1.5,0-2.8-1.2-2.8-2.8V39.3C40.9,37.8,42.1,36.5,43.6,36.5z"/>
<path id="Path_717" class="st9" d="M73.7,40.7c0,2.4-1.9,4.3-4.3,4.3s-4.3-1.9-4.3-4.3v-4.2h8.6L73.7,40.7L73.7,40.7z"/>
<path id="Path_718" class="st5" d="M82.3,40.7c0,2.4-2,4.3-4.4,4.2c-2.3,0-4.2-1.9-4.2-4.2v-4.2h8.6V40.7z"/>
<path id="Path_719" class="st9" d="M90.9,40.7c0,2.4-1.9,4.3-4.3,4.3s-4.3-1.9-4.3-4.3l0,0v-4.2h8.6L90.9,40.7L90.9,40.7z"/>
<path id="Path_720" class="st5" d="M99.5,40.7c0,2.4-1.9,4.3-4.3,4.3s-4.3-1.9-4.3-4.3v-4.2h8.6L99.5,40.7L99.5,40.7z"/>
<path id="Path_721" class="st9" d="M108.1,40.7c0,2.4-1.9,4.3-4.3,4.3s-4.3-1.9-4.3-4.3v-4.2h8.6L108.1,40.7L108.1,40.7z"/>
<path id="Path_722" class="st9" d="M125.4,40.7c0,2.4-1.9,4.3-4.3,4.3s-4.3-1.9-4.3-4.3l0,0v-4.2h8.6L125.4,40.7L125.4,40.7z"/>
<path id="Path_723" class="st5" d="M116.8,40.7c0,2.4-1.9,4.3-4.3,4.3s-4.3-1.9-4.3-4.3v-4.2h8.6L116.8,40.7L116.8,40.7z"/>
<g id="Group_225">
	<g id="Group_224">
		<path id="Path_724" class="st10" d="M30.6,1.6c2.1,9-3.4,17.9-12.4,20.1c-2.4,0.6-5,0.6-7.4,0.1c3.8,7.3,12.7,10.1,20,6.3
			s10.1-12.7,6.3-20C35.7,5.2,33.4,3,30.6,1.6z"/>
		<path id="Path_725" class="st11" d="M30.4,10.2c0.8-2.8,0.9-5.8,0.3-8.6c-7.3-3.7-16.2-0.8-19.9,6.6c-2.2,4.3-2.1,9.3,0.1,13.6
			C19.3,23.6,27.8,18.6,30.4,10.2z"/>
	</g>
	<polygon class="st12" points="27.9,29.8 68.3,30 67.9,25.8 66.7,24.9 35.5,4.4 	"/>
	<g>
		<path class="st13" d="M34.5,8.9c0.4,0.6,0.9,1.3,1.4,2c1.5-0.8,3-1.5,4.5-2.3c0.2-0.1,0.2-0.6,0.2-0.9c1,0.7,2.1,1.3,3.2,2.1
			c0.7,1.4,1.4,2.9,2.2,4.4c0.8-0.5,1.6-1.1,2.2-1.5c0.6,0.4,1.3,0.8,1.9,1.2c-1.1,0.5-2.2,1.2-3.4,1.7c0.9,1.7,1.8,3.3,2.7,4.9
			c1.3-0.7,2.5-1.4,3.7-2c1.4-0.7,1.4-0.7,0.7-2.1c0.9,0.6,2.1,1.4,3.1,2.1c0.8,1.5,1.5,3.1,2.3,4.5c0.1,0.2,0.8,0.3,1.1,0.2
			c0.7-0.3,1.5-0.7,2.2-1c0.5,0.3,1.5,1,1.5,1s-2.6,1.5-3.8,2.2c0.9,1.6,1.8,3.2,2.7,4.8c-0.7,0-1.4,0-2.1,0
			c-0.6-1.2-1.2-2.4-1.8-3.6c-0.1-0.2-0.6-0.3-0.8-0.2c-1.5,0.8-2.9,1.6-4.4,2.5c0.3,0.5,0.5,0.9,0.8,1.3c-2.2,0-4.3,0-6.5,0
			c1-0.7,2-1.3,3.2-2.2c-0.8-1.5-1.7-3.1-2.6-4.7c-1.8,1-3.4,1.8-5,2.7c0.8,1.5,1.4,2.8,2.1,4.2c-0.6,0-1.3,0-1.9,0
			c-0.6-1.1-1.1-2.1-1.8-3.3c-1.7,0.9-3.3,1.7-4.9,2.6c0.1,0.3,0.2,0.3,0.3,0.6c-1.8,0-3.7,0-5.5,0c0.9-0.5,1.8-0.7,2.8-1.2
			c-0.9-1.7-1.8-3.3-2.7-4.9c-0.7,0.3-1.4,0.5-2,0.8c0.5-1.7,1-3.3,1.5-5c0.4,0.5,0.9,1.1,1.3,1.7c1.7-0.9,3.3-1.7,5-2.6
			c-0.9-1.6-1.8-3.2-2.7-4.9c-0.8,0.4-1.5,0.7-2.2,1C33.4,12.6,34,10.7,34.5,8.9z M58,24.3c-0.8-1.4-1.5-2.7-2.2-4.1
			c-0.4-0.7-0.8-0.8-1.4-0.5c-1.4,0.8-2.7,1.6-4.2,2.4c0.9,1.6,1.8,3.2,2.7,4.9C54.6,26,56.3,25.2,58,24.3z M45.1,16.4
			c-1.7,0.9-3.4,1.8-5.1,2.7c1,1.7,1.8,3.3,2.8,4.9c1.8-0.9,3.4-1.8,5.1-2.7C47,19.8,46.1,18.3,45.1,16.4z M36.6,12.5
			c1,1.8,1.8,3.4,2.8,5.1c1.6-0.9,3.2-1.7,4.9-2.6c-0.9-1.7-1.8-3.4-2.7-5.1C39.9,10.7,38.3,11.6,36.6,12.5z M36.3,27.6
			c1.7-0.9,3.3-1.8,4.9-2.7c-0.9-1.8-1.8-3.4-2.7-5.1c-1.7,0.9-3.3,1.8-4.9,2.7C34.5,24.3,35.3,25.9,36.3,27.6z"/>
	</g>
	<path id="Rectangle_57" class="st14" d="M26.4,29.6L34,4c0.2-0.6,0.8-0.9,1.3-0.7l0,0c0.6,0.2,0.9,0.8,0.7,1.3l-7.6,25.6
		c-0.2,0.6-0.8,0.9-1.3,0.7l0,0C26.6,30.8,26.2,30.2,26.4,29.6z"/>
	<path class="st13" d="M70.8,27.9l-0.2-0.2c-1.3-0.9-2.6-1.8-3.9-2.8c0.4,0.8,0.8,1.6,1.3,2.4c-1.5,0.9-3.1,1.8-4.6,2.7
		c1.8,0,3.6,0,5.4,0c0.1,0,0.5,0,0.6,0c1,0,1.9-0.6,1.9-1.4C71.3,28.3,71,28.1,70.8,27.9z"/>
</g>
</svg>
