<svg version="1.1" id="Layer_1" xmlns="http://www.w3.org/2000/svg" xmlns:xlink="http://www.w3.org/1999/xlink" x="0px" y="0px"
	 viewBox="0 0 183 69.1" width="183px" height="69px" style="enable-background:new 0 0 183 69.1;" xml:space="preserve">
<style type="text/css">
	.st0{fill:#D5A949;}
	.st1{fill:#C25B1A;}
	.st2{fill:#73B2B6;}
	.st3{fill:#539392;}
	.st4{fill:#4E2A0E;}
	.st5{fill:#1A1818;}
	.st6{fill:#818386;}
	.st7{fill:none;stroke:#FFFFFF;stroke-width:2.544;stroke-miterlimit:10;}
	.rotate_tire{
        transform-origin: 50% 50%;
        transform-box:fill-box;
	}
	.rotate_tire_one{
        animation: tire1 5s linear infinite reverse;			
	}
	.rotate_tire_two{
        animation: tire2 5s linear infinite reverse;			
	}
    @keyframes tire2 {
        0%{
    		transform: translate(929.899px, 480.147px) rotate(0deg);
        }
        100%{
           transform: translate(929.899px, 480.147px) rotate(360deg);
      }
    }
    @keyframes tire1 {
        0%{
    		transform: translate(1049.51px, 480.147px) rotate(0deg);
        }
        100%{
           transform: translate(1049.51px, 480.147px) rotate(360deg);
      }
    }
</style>
<g transform="translate(-920.653 -442.734)">
	<rect x="920.7" y="478.7" class="st0" width="7" height="11.3"/>
	<rect x="1075.1" y="442.7" class="st1" width="5.4" height="26.3"/>
	<rect x="1098.3" y="442.7" class="st1" width="5.4" height="26.3"/>
	<rect x="1032.8" y="442.7" class="st1" width="5.4" height="26.3"/>
	<rect x="1016.8" y="453.2" class="st1" width="86.8" height="4.9"/>
	<g transform="translate(924.858 442.734)">
		<path class="st2" d="M24.5,30.1H1.7c2.3-3.5,6.3-5.7,10.5-5.6h17.1c10.5,0,15.1-6.7,15.1-6.7S52.9,7.4,56.6,2.9
			C59.2-0.4,64.9,0,64.9,0h27.1v24.5h86.9v28.1h-13.2c0-12.4-11-22.5-24.5-22.5s-24.5,10.1-24.5,22.5H48.9
			C48.9,40.2,38,30.1,24.5,30.1z"/>
		<path class="st3" d="M141.2,30.1c13.5,0,24.5,10.1,24.5,22.5h-48.9C116.7,40.2,127.7,30.1,141.2,30.1z"/>
		<path class="st3" d="M0,35.7c0-2,0.6-3.9,1.7-5.6h22.8c13.5,0,24.5,10.1,24.5,22.5H0V35.7z"/>
	</g>
	<rect x="1012.6" y="446.2" class="st4" width="4.3" height="18.4"/>
	<path class="st4" d="M970.9,464.7h36.9v-18.4h-22L970.9,464.7z"/>
	<g transform="translate(1049.508 480.147)" class="rotate_tire_one rotate_tire">
		<ellipse class="st5" cx="16.5" cy="15.2" rx="16.5" ry="16.5"/>
		<path class="st6" d="M7.5,15.2c0,5,4,9,9,9s9-4,9-9s-4-9-9-9S7.5,10.2,7.5,15.2z"/>
		<path class="st7" d="M12.5,15.1c-0.2,2.2,1.4,4.1,3.6,4.3c2.2,0.2,4.1-1.4,4.3-3.6c0.2-2.2-1.4-4.1-3.6-4.3c-0.1,0-0.2,0-0.3,0
			C14.4,11.4,12.6,13,12.5,15.1z"/>
	</g>
	<g transform="translate(929.899 480.147)" class="rotate_tire_two rotate_tire">
		<ellipse class="st5" cx="16.5" cy="15.2" rx="16.5" ry="16.5"/>
		<path class="st6" d="M7.5,15.2c0,5,4,9,9,9s9-4,9-9s-4-9-9-9S7.5,10.2,7.5,15.2z"/>
		<path class="st7" d="M12.5,15.1c-0.2,2.2,1.4,4.1,3.6,4.3c2.2,0.2,4.1-1.4,4.3-3.6c0.2-2.2-1.4-4.1-3.6-4.3c-0.1,0-0.2,0-0.3,0
			C14.4,11.4,12.6,13,12.5,15.1z"/>
	</g>
	<rect x="966.2" y="483.4" class="st3" width="81.5" height="3.6"/>
</g>
</svg>
