<svg
	xmlns="http://www.w3.org/2000/svg" width="167.847" height="90.919" viewBox="0 0 167.847 90.919">
	<defs>
		<style>.a{fill:#ab0b1b;}.b{fill:#040505;}.c{fill:#ffc200;}.d{fill:#c3c1bf;}.e{fill:#858585;}.f{fill:#41bfe4;}.g{fill:#924e1a;}.h{fill:#af661c;}
		.rotate_tire{
            animation: tire 5s linear infinite reverse;
            transform-origin: 50% 50%;
            transform-box:fill-box;
		}
        @keyframes tire {
            0%{
	    		transform: rotate(0deg);
            }
            100%{
               transform: rotate(360deg);
            }
        }
    </style>
	</defs>
	<g transform="translate(-316.133 -267.741)">
		<rect class="a" width="9.717" height="5.3" transform="translate(335.568 271.274)"/>
		<rect class="b" width="8.834" height="8.834" transform="translate(475.145 332.229)"/>
		<path class="c" d="M479.562,341.063V276.575a8.833,8.833,0,0,0-8.834-8.834H347.935a8.833,8.833,0,0,0-8.834,8.834v64.488Z"/>
		<path class="c" d="M461.894,341.063V308.377a8.834,8.834,0,0,0-8.834-8.834H330.267a8.834,8.834,0,0,0-8.834,8.834v32.686Z"/>
		<rect class="b" width="29.152" height="8.834" transform="translate(316.133 332.229)"/>
		<g class="rotate_tire">
			<path class="b" d="M326.421,342.98A15.68,15.68,0,1,0,342.1,327.3,15.68,15.68,0,0,0,326.421,342.98Z"/>
			<path class="d" d="M331.516,342.98A10.585,10.585,0,1,0,342.1,332.4,10.585,10.585,0,0,0,331.516,342.98Z"/>
			<path class="e" d="M338.9,342.98a3.2,3.2,0,1,0,3.2-3.2A3.2,3.2,0,0,0,338.9,342.98Z"/>
			<path class="e" d="M340.338,336.218a1.763,1.763,0,1,0,1.764-1.763A1.764,1.764,0,0,0,340.338,336.218Z"/>
			<path class="e" d="M340.338,349.742a1.763,1.763,0,1,0,1.764-1.764A1.763,1.763,0,0,0,340.338,349.742Z"/>
			<path class="e" d="M345.635,336.953a1.764,1.764,0,1,0,2.495,0A1.761,1.761,0,0,0,345.635,336.953Z"/>
			<path class="e" d="M336.073,346.515a1.764,1.764,0,1,0,2.493,0A1.762,1.762,0,0,0,336.073,346.515Z"/>
			<path class="e" d="M348.862,341.217a1.764,1.764,0,1,0,1.765,1.764A1.764,1.764,0,0,0,348.862,341.217Z"/>
			<path class="e" d="M335.34,341.217a1.764,1.764,0,1,0,1.763,1.763A1.764,1.764,0,0,0,335.34,341.217Z"/>
			<path class="e" d="M348.129,346.515a1.764,1.764,0,1,0,0,2.495A1.762,1.762,0,0,0,348.129,346.515Z"/>
			<path class="e" d="M338.566,336.953a1.763,1.763,0,1,0,0,2.494A1.761,1.761,0,0,0,338.566,336.953Z"/>
		</g>
		<g class="rotate_tire">
			<path class="b" d="M436.038,342.98A15.68,15.68,0,1,0,451.719,327.3,15.68,15.68,0,0,0,436.038,342.98Z"/>
			<path class="d" d="M441.133,342.98A10.585,10.585,0,1,0,451.719,332.4,10.585,10.585,0,0,0,441.133,342.98Z"/>
			<path class="e" d="M448.516,342.98a3.2,3.2,0,1,0,3.2-3.2A3.2,3.2,0,0,0,448.516,342.98Z"/>
			<path class="e" d="M449.955,336.218a1.764,1.764,0,1,0,1.764-1.763A1.764,1.764,0,0,0,449.955,336.218Z"/>
			<path class="e" d="M449.955,349.742a1.764,1.764,0,1,0,1.764-1.764A1.763,1.763,0,0,0,449.955,349.742Z"/>
			<path class="e" d="M455.252,336.953a1.764,1.764,0,1,0,2.495,0A1.761,1.761,0,0,0,455.252,336.953Z"/>
			<path class="e" d="M445.69,346.515a1.764,1.764,0,1,0,2.493,0A1.762,1.762,0,0,0,445.69,346.515Z"/>
			<path class="e" d="M458.479,341.217a1.764,1.764,0,1,0,1.765,1.764A1.763,1.763,0,0,0,458.479,341.217Z"/>
			<path class="e" d="M444.957,341.217a1.764,1.764,0,1,0,1.763,1.763A1.764,1.764,0,0,0,444.957,341.217Z"/>
			<path class="e" d="M457.746,346.515a1.764,1.764,0,1,0,0,2.495A1.762,1.762,0,0,0,457.746,346.515Z"/>
			<path class="e" d="M448.183,336.953a1.763,1.763,0,1,0,0,2.494A1.761,1.761,0,0,0,448.183,336.953Z"/>
		</g>
		<path class="f" d="M321.433,309.319a3.909,3.909,0,1,1,0,7.818"/>
		<rect class="g" width="19.435" height="21.202" transform="translate(339.101 278.342)"/>
		<rect class="g" width="30.919" height="21.202" transform="translate(364.72 278.342)"/>
		<rect class="g" width="30.919" height="21.202" transform="translate(400.939 278.342)"/>
		<rect class="g" width="30.919" height="21.202" transform="translate(437.159 278.342)"/>
		<rect class="g" width="6.184" height="21.202" transform="translate(473.379 278.342)"/>
		<rect class="h" width="7.067" height="2.65" transform="translate(321.433 318.978)"/>
		<rect class="h" width="7.067" height="2.65" transform="translate(321.433 324.279)"/>
		<rect class="b" width="140.461" height="3.534" transform="translate(339.101 305.727)"/>
		<rect class="b" width="140.461" height="3.534" transform="translate(339.101 313.678)"/>
	</g>
</svg>